<svg width="36" height="40" viewBox="0 0 36 40" fill="none" xmlns="http://www.w3.org/2000/svg">
<path d="M20 29.1668H20.0166M13.6666 36.6668H26.3333C28.2002 36.6668 29.1336 36.6668 29.8466 36.3035C30.4738 35.9839 30.9838 35.474 31.3033 34.8468C31.6666 34.1338 31.6666 33.2003 31.6666 31.3335V8.66683C31.6666 6.79999 31.6666 5.86657 31.3033 5.15353C30.9838 4.52632 30.4738 4.01639 29.8466 3.69681C29.1336 3.3335 28.2002 3.3335 26.3333 3.3335H13.6666C11.7998 3.3335 10.8664 3.3335 10.1533 3.69681C9.52614 4.01639 9.0162 4.52632 8.69662 5.15353C8.33331 5.86657 8.33331 6.79999 8.33331 8.66683V31.3335C8.33331 33.2003 8.33331 34.1338 8.69662 34.8468C9.0162 35.474 9.52614 35.9839 10.1533 36.3035C10.8664 36.6668 11.7998 36.6668 13.6666 36.6668ZM20.8333 29.1668C20.8333 29.6271 20.4602 30.0002 20 30.0002C19.5397 30.0002 19.1666 29.6271 19.1666 29.1668C19.1666 28.7066 19.5397 28.3335 20 28.3335C20.4602 28.3335 20.8333 28.7066 20.8333 29.1668Z" stroke="url(#paint0_linear_3162_36318)" stroke-width="2.5" stroke-linecap="round" stroke-linejoin="round"/>
<defs>
<linearGradient id="paint0_linear_3162_36318" x1="20" y1="3.3335" x2="20" y2="36.6668" gradientUnits="userSpaceOnUse">
<stop stop-color="#3158BD"/>
<stop offset="1" stop-color="#2B4FAB"/>
</linearGradient>
</defs>
</svg>
