<svg width="15" height="14" viewBox="0 0 15 14" fill="none" xmlns="http://www.w3.org/2000/svg">
<path id="&#226;&#128;&#157;" d="M2.87496 0.13208C4.31896 0.74008 5.39562 1.55075 6.10496 2.56408C6.83962 3.55208 7.20696 4.65408 7.20696 5.87008C7.20696 7.06075 6.85229 8.34008 6.14296 9.70808C5.43362 11.0507 4.49629 12.2921 3.33096 13.4321L0.708957 11.2281C1.46896 10.2401 2.02629 9.42941 2.38096 8.79608C2.73562 8.13741 2.91296 7.56741 2.91296 7.08608C2.91296 6.60475 2.72296 6.18675 2.34296 5.83208C1.98829 5.45208 1.36762 5.03408 0.480957 4.57808V4.31208L2.64696 0.13208H2.87496ZM10.323 0.13208C11.767 0.74008 12.8563 1.55075 13.591 2.56408C14.3256 3.55208 14.693 4.65408 14.693 5.87008C14.693 7.06075 14.3383 8.34008 13.629 9.70808C12.9196 11.0507 11.9696 12.2921 10.779 13.4321L8.19496 11.2281C8.95496 10.2401 9.51229 9.42941 9.86696 8.79608C10.2216 8.13741 10.399 7.56741 10.399 7.08608C10.399 6.60475 10.209 6.18675 9.82896 5.83208C9.47429 5.45208 8.85362 5.03408 7.96696 4.57808V4.31208L10.133 0.13208H10.323Z" fill="white"/>
</svg>
