<svg width="16" height="16" viewBox="0 0 16 16" fill="none" xmlns="http://www.w3.org/2000/svg">
<g id="phone-call-01">
<path id="Icon" d="M6.63379 4.36364C6.0726 4.47313 5.55686 4.74759 5.15256 5.15189C4.74826 5.55619 4.4738 6.07193 4.36431 6.63312M6.63379 2.06543C5.46786 2.19495 4.38063 2.71707 3.55061 3.54605C2.72058 4.37504 2.19709 5.46161 2.0661 6.62737" stroke="white" stroke-linecap="round" stroke-linejoin="round"/>
<path id="Icon_2" d="M10.7455 6.73076C10.3323 7.59139 9.76898 8.398 9.05561 9.11137C8.34224 9.82474 7.53563 10.388 6.675 10.8012C6.60097 10.8368 6.56396 10.8545 6.51712 10.8682C6.35068 10.9167 6.1463 10.8819 6.00534 10.7809C5.96567 10.7525 5.93174 10.7186 5.86387 10.6507C5.65631 10.4432 5.55253 10.3394 5.44817 10.2715C5.05462 10.0157 4.54726 10.0157 4.15371 10.2715C4.04935 10.3394 3.94557 10.4432 3.73802 10.6507L3.62232 10.7664C3.30681 11.0819 3.14905 11.2397 3.06336 11.4091C2.89293 11.7461 2.89293 12.144 3.06336 12.481C3.14905 12.6504 3.30681 12.8082 3.62232 13.1237L3.71591 13.2172C4.03034 13.5317 4.18756 13.6889 4.40131 13.809C4.63849 13.9422 5.00687 14.038 5.27891 14.0372C5.52408 14.0365 5.69163 13.9889 6.02674 13.8938C7.82764 13.3826 9.527 12.4182 10.9447 11.0005C12.3625 9.58276 13.3269 7.8834 13.838 6.0825C13.9332 5.74739 13.9807 5.57984 13.9814 5.33467C13.9822 5.06263 13.8865 4.69425 13.7532 4.45707C13.6331 4.24332 13.4759 4.0861 13.1615 3.77167L13.0679 3.67808C12.7524 3.36257 12.5946 3.20481 12.4252 3.11912C12.0883 2.94868 11.6903 2.94868 11.3534 3.11912C11.1839 3.20481 11.0262 3.36257 10.7107 3.67808L10.595 3.79377C10.3874 4.00133 10.2836 4.10511 10.2158 4.20947C9.95991 4.60302 9.95991 5.11038 10.2158 5.50393C10.2836 5.60829 10.3874 5.71207 10.595 5.91963C10.6628 5.98749 10.6968 6.02143 10.7252 6.06109C10.8261 6.20205 10.861 6.40644 10.8124 6.57288C10.7988 6.61972 10.781 6.65673 10.7455 6.73076Z" fill="white"/>
</g>
</svg>
