<svg width="40" height="40" viewBox="0 0 40 40" fill="none" xmlns="http://www.w3.org/2000/svg">
<path d="M33.7172 18.4637C33.6698 18.2633 33.5738 18.0778 33.4375 17.9235C33.3012 17.7692 33.1289 17.651 32.9359 17.5793L23.9344 14.2027L26.225 2.74491C26.2769 2.47869 26.2407 2.20283 26.1221 1.95894C26.0034 1.71506 25.8086 1.51639 25.5671 1.39291C25.3256 1.26944 25.0506 1.22785 24.7834 1.27444C24.5162 1.32102 24.2714 1.45325 24.0859 1.65116L6.58593 20.4012C6.4438 20.5509 6.34097 20.7336 6.28665 20.9328C6.23233 21.132 6.2282 21.3415 6.27463 21.5427C6.32105 21.7439 6.41659 21.9305 6.55271 22.0857C6.68883 22.241 6.86129 22.3601 7.05468 22.4324L16.0594 25.809L13.775 37.2543C13.7231 37.5205 13.7592 37.7964 13.8779 38.0403C13.9966 38.2841 14.1914 38.4828 14.4328 38.6063C14.6743 38.7298 14.9494 38.7713 15.2166 38.7248C15.4838 38.6782 15.7286 38.546 15.9141 38.348L33.4141 19.598C33.5536 19.4482 33.6542 19.2665 33.7071 19.0687C33.76 18.8709 33.7634 18.6631 33.7172 18.4637ZM17.0891 33.4371L18.725 25.2527C18.7835 24.9625 18.7371 24.6608 18.5941 24.4016C18.451 24.1423 18.2205 23.9423 17.9437 23.8371L9.68749 20.7355L22.9094 6.56991L21.275 14.7543C21.2164 15.0446 21.2628 15.3462 21.4059 15.6054C21.549 15.8647 21.7794 16.0647 22.0562 16.1699L30.3062 19.2637L17.0891 33.4371Z" fill="url(#paint0_linear_3162_36340)"/>
<defs>
<linearGradient id="paint0_linear_3162_36340" x1="19.996" y1="1.25586" x2="19.996" y2="38.7433" gradientUnits="userSpaceOnUse">
<stop stop-color="#21AB7D"/>
<stop offset="1" stop-color="#20A075"/>
</linearGradient>
</defs>
</svg>
