<svg width="18" height="18" viewBox="0 0 18 18" fill="none" xmlns="http://www.w3.org/2000/svg">
<g id="marker-pin-01-fill">
<path id="Subtract" fill-rule="evenodd" clip-rule="evenodd" d="M8.69203 16.0419C8.46445 15.9683 8.26465 15.7696 7.86504 15.3721C5.28751 12.8087 3 10.3936 3 7.5C3 4.18629 5.68629 1.5 9 1.5C12.3137 1.5 15 4.18629 15 7.5C15 10.3936 12.7125 12.8087 10.135 15.3721C9.73535 15.7696 9.53555 15.9683 9.30797 16.0419C9.10706 16.107 8.89294 16.107 8.69203 16.0419ZM11.25 7.5C11.25 8.74264 10.2426 9.75 9 9.75C7.75736 9.75 6.75 8.74264 6.75 7.5C6.75 6.25736 7.75736 5.25 9 5.25C10.2426 5.25 11.25 6.25736 11.25 7.5Z" fill="white"/>
</g>
</svg>
