<svg width="18" height="18" viewBox="0 0 18 18" fill="none" xmlns="http://www.w3.org/2000/svg">
<g id="Frame">
<path id="Vector" d="M16.3125 7.3125C16.3114 6.26855 15.8962 5.26768 15.158 4.5295C14.4198 3.79132 13.4189 3.37612 12.375 3.375H9.5625C9.5625 2.92745 9.74029 2.49822 10.0568 2.18176C10.3732 1.86529 10.8024 1.6875 11.25 1.6875C11.3992 1.6875 11.5423 1.62824 11.6477 1.52275C11.7532 1.41726 11.8125 1.27418 11.8125 1.125C11.8125 0.975816 11.7532 0.832742 11.6477 0.727252C11.5423 0.621763 11.3992 0.5625 11.25 0.5625C10.5041 0.5625 9.78871 0.858816 9.26126 1.38626C8.73382 1.91371 8.4375 2.62908 8.4375 3.375H5.625C4.58105 3.37612 3.58018 3.79132 2.842 4.5295C2.10382 5.26768 1.68862 6.26855 1.6875 7.3125C1.68783 7.50966 1.73996 7.70328 1.83869 7.87395C1.93741 8.04462 2.07925 8.18634 2.25 8.28492V9C2.25 11.4982 4.57875 13.3678 6.45047 14.8704C7.28859 15.544 8.4375 16.4658 8.4375 16.875C8.4375 17.0242 8.49676 17.1673 8.60225 17.2727C8.70774 17.3782 8.85082 17.4375 9 17.4375C9.14918 17.4375 9.29226 17.3782 9.39775 17.2727C9.50324 17.1673 9.5625 17.0242 9.5625 16.875C9.5625 16.4658 10.7114 15.544 11.5495 14.8704C13.4212 13.3678 15.75 11.4982 15.75 9V8.28492C15.9207 8.18634 16.0626 8.04462 16.1613 7.87395C16.26 7.70328 16.3122 7.50966 16.3125 7.3125ZM5.625 4.5H12.375C13.1206 4.50112 13.8353 4.79779 14.3625 5.325C14.8897 5.8522 15.1864 6.56692 15.1875 7.3125H2.8125C2.8125 6.56658 3.10882 5.85121 3.63626 5.32376C4.16371 4.79632 4.87908 4.5 5.625 4.5ZM10.8457 13.9922C10.099 14.5913 9.43945 15.1172 9 15.6354C8.56055 15.1207 7.90102 14.5913 7.1543 13.9922C5.47031 12.6415 3.375 10.9589 3.375 9V8.4375H14.625V9C14.625 10.9589 12.5297 12.6415 10.8457 13.9922Z" fill="#64677A"/>
</g>
</svg>
