<svg width="85" height="28" viewBox="0 0 85 28" fill="none" xmlns="http://www.w3.org/2000/svg">
<g id="%&#219;&#184;&#219;&#176;">
<path id="Vector" d="M76.1267 5.04688L84.9997 13.9199L76.1267 22.793L67.2314 13.9199L76.1267 5.04688ZM74.8401 13.9199L76.1267 15.1843L77.3911 13.9199L76.1267 12.6555L74.8401 13.9199Z" fill="#A91E1E"/>
<path id="Vector_2" d="M55.4069 0.345703C55.4069 4.97447 56.9375 9.20396 59.9987 13.0342L64.3909 18.2692L59.0005 27.2532L57.7805 26.6321C55.9319 25.6856 54.4753 24.3547 53.4105 22.6392C52.3605 20.9238 51.8355 19.0456 51.8355 17.0048V11.1043H51.0148H50.8373H50.0387V17.0048C50.0387 19.0456 49.5064 20.9238 48.4416 22.6392C47.3768 24.3547 45.9276 25.6856 44.0938 26.6321L42.8516 27.2532L37.4834 18.2692L41.8534 13.0342C44.9146 9.20396 46.4452 4.97447 46.4452 0.345703H50.8373H51.0148H55.4069Z" fill="#A91E1E"/>
<path id="Vector_3" d="M6.9437 14.5594C4.87801 14.5594 3.19808 13.9123 1.90392 12.6181C0.634639 11.2991 0 9.51958 0 7.27968C0 5.06467 0.634639 3.29763 1.90392 1.97858C3.17319 0.659526 4.85312 0 6.9437 0C9.05916 0 10.7391 0.67197 11.9835 2.01591C13.2528 3.33496 13.8874 5.08955 13.8874 7.27968C13.8874 9.51958 13.2403 11.2991 11.9461 12.6181C10.6769 13.9123 9.00938 14.5594 6.9437 14.5594ZM10.1916 27.2521H3.8825L22.4737 0H28.7827L10.1916 27.2521ZM6.9437 10.5275C7.51611 10.5275 7.92676 10.2164 8.17564 9.59425C8.44941 8.97205 8.58629 8.20053 8.58629 7.27968C8.58629 6.28417 8.44941 5.5002 8.17564 4.92778C7.92676 4.33047 7.51611 4.03182 6.9437 4.03182C6.37128 4.03182 5.94818 4.34292 5.67442 4.96512C5.42554 5.58731 5.3011 6.35883 5.3011 7.27968C5.3011 8.27519 5.42554 9.0716 5.67442 9.66891C5.94818 10.2413 6.37128 10.5275 6.9437 10.5275ZM25.5349 27.6255C23.4692 27.6255 21.7893 26.9784 20.4951 25.6842C19.2258 24.3652 18.5912 22.5857 18.5912 20.3458C18.5912 18.1308 19.2258 16.3637 20.4951 15.0447C21.7644 13.7256 23.4443 13.0661 25.5349 13.0661C27.6503 13.0661 29.3303 13.7381 30.5747 15.082C31.8439 16.4011 32.4786 18.1557 32.4786 20.3458C32.4786 22.5857 31.8315 24.3652 30.5373 25.6842C29.2681 26.9784 27.6006 27.6255 25.5349 27.6255ZM25.5349 23.5936C26.1073 23.5936 26.5179 23.2825 26.7668 22.6603C27.0406 22.0381 27.1775 21.2666 27.1775 20.3458C27.1775 19.3503 27.0406 18.5663 26.7668 17.9939C26.5179 17.3966 26.1073 17.0979 25.5349 17.0979C24.9625 17.0979 24.5394 17.409 24.2656 18.0312C24.0167 18.6534 23.8923 19.4249 23.8923 20.3458C23.8923 21.3413 24.0167 22.1377 24.2656 22.735C24.5394 23.3074 24.9625 23.5936 25.5349 23.5936Z" fill="#A91E1E"/>
</g>
</svg>
