<svg width="18" height="18" viewBox="0 0 18 18" fill="none" xmlns="http://www.w3.org/2000/svg">
<path id="Subtract" fill-rule="evenodd" clip-rule="evenodd" d="M9 18C13.9706 18 18 13.9706 18 9C18 4.02944 13.9706 0 9 0C4.02944 0 0 4.02944 0 9C0 13.9706 4.02944 18 9 18ZM5.20548 4.67202C4.82314 5.02769 4.63197 5.49895 4.63197 6.08581V6.53929C4.63197 7.15282 4.82314 7.63742 5.20548 7.99309C5.58783 8.34876 6.10355 8.5266 6.75265 8.5266C7.39286 8.5266 7.89969 8.34876 8.27314 7.99309C8.65549 7.63742 8.84666 7.16616 8.84666 6.5793V6.11248C8.84666 5.49895 8.65549 5.01435 8.27314 4.65868C7.89969 4.30301 7.38841 4.12517 6.73931 4.12517C6.09911 4.12517 5.58783 4.30745 5.20548 4.67202ZM6.23248 7.13948C6.108 6.99721 6.04576 6.81048 6.04576 6.5793V6.09914C6.04576 5.85017 6.108 5.659 6.23248 5.52562C6.35697 5.38336 6.52591 5.31222 6.73931 5.31222C6.95272 5.31222 7.12166 5.38336 7.24614 5.52562C7.37063 5.659 7.43287 5.84573 7.43287 6.08581V6.4726C7.43287 7.05945 7.20613 7.35288 6.75265 7.35288C6.53036 7.35288 6.35697 7.28175 6.23248 7.13948ZM11.8076 5.61899L10.7806 5.11216L6.15246 12.5146L7.16612 13.0347L11.8076 5.61899ZM9.71361 9.99374C9.33126 10.3494 9.14009 10.8251 9.14009 11.4209V11.8877C9.14009 12.5012 9.33126 12.9858 9.71361 13.3415C10.1048 13.6972 10.6206 13.875 11.2608 13.875C11.9099 13.875 12.4212 13.6972 12.7946 13.3415C13.177 12.9858 13.3681 12.5101 13.3681 11.9144V11.4609C13.3681 10.8296 13.177 10.3405 12.7946 9.99374C12.4123 9.63807 11.8965 9.46023 11.2474 9.46023C10.6072 9.46023 10.096 9.63807 9.71361 9.99374ZM10.7539 12.4612C10.6117 12.3011 10.5405 12.1189 10.5405 11.9144V11.3809C10.5494 11.1586 10.6161 10.9807 10.7406 10.8473C10.874 10.714 11.0429 10.6473 11.2474 10.6473C11.4608 10.6473 11.6298 10.7184 11.7543 10.8607C11.8876 11.003 11.9543 11.1897 11.9543 11.4209L11.941 12.0877C11.9054 12.4879 11.6787 12.6879 11.2608 12.6879C11.0652 12.6879 10.8962 12.6124 10.7539 12.4612Z" fill="url(#paint0_linear_3162_36274)"/>
<defs>
<linearGradient id="paint0_linear_3162_36274" x1="0" y1="9" x2="18" y2="9" gradientUnits="userSpaceOnUse">
<stop stop-color="#E93F40"/>
<stop offset="1" stop-color="#BC2727"/>
</linearGradient>
</defs>
</svg>
