<svg width="20" height="20" viewBox="0 0 20 20" fill="none" xmlns="http://www.w3.org/2000/svg">
<g id="phone-call-01">
<path id="Icon" d="M11.708 5.00008C12.522 5.15889 13.27 5.55696 13.8564 6.14336C14.4428 6.72976 14.8409 7.4778 14.9997 8.29175M11.708 1.66675C13.3991 1.85461 14.976 2.61189 16.1799 3.81425C17.3838 5.01662 18.143 6.59259 18.333 8.28341M8.52216 11.5526C7.52084 10.5513 6.73019 9.41912 6.15019 8.21111C6.1003 8.1072 6.07536 8.05524 6.05619 7.9895C5.98809 7.75587 6.03701 7.46899 6.17868 7.27113C6.21855 7.21546 6.26618 7.16783 6.36144 7.07257C6.65278 6.78123 6.79845 6.63556 6.89369 6.48908C7.25285 5.93667 7.25285 5.22452 6.89369 4.67211C6.79845 4.52563 6.65278 4.37996 6.36144 4.08862L6.19905 3.92623C5.75618 3.48336 5.53475 3.26192 5.29693 3.14164C4.82396 2.90241 4.26541 2.90241 3.79244 3.14164C3.55462 3.26192 3.33319 3.48336 2.89032 3.92623L2.75896 4.05759C2.3176 4.49894 2.09693 4.71962 1.92839 5.01964C1.74137 5.35257 1.6069 5.86964 1.60804 6.25149C1.60906 6.59562 1.67582 6.8308 1.80932 7.30117C2.5268 9.82901 3.88053 12.2143 5.87051 14.2043C7.86049 16.1943 10.2458 17.548 12.7736 18.2655C13.244 18.399 13.4792 18.4657 13.8233 18.4668C14.2052 18.4679 14.7222 18.3334 15.0552 18.1464C15.3552 17.9779 15.5759 17.7572 16.0172 17.3158L16.1486 17.1845C16.5914 16.7416 16.8129 16.5202 16.9332 16.2824C17.1724 15.8094 17.1724 15.2508 16.9332 14.7779C16.8129 14.5401 16.5914 14.3186 16.1486 13.8758L15.9862 13.7134C15.6948 13.422 15.5492 13.2764 15.4027 13.1811C14.8503 12.8219 14.1381 12.822 13.5857 13.1811C13.4392 13.2764 13.2936 13.422 13.0022 13.7134C12.907 13.8086 12.8593 13.8562 12.8037 13.8961C12.6058 14.0378 12.3189 14.0867 12.0853 14.0186C12.0196 13.9994 11.9676 13.9745 11.8637 13.9246C10.6557 13.3446 9.52347 12.554 8.52216 11.5526Z" stroke="#434557" stroke-width="1.2" stroke-linecap="round" stroke-linejoin="round"/>
</g>
</svg>
