<svg width="40" height="40" viewBox="0 0 40 40" fill="none" xmlns="http://www.w3.org/2000/svg">
<g id="Frame">
<path id="Vector" d="M36.25 16.25C36.2475 13.9301 35.3249 11.706 33.6844 10.0656C32.044 8.42515 29.8199 7.50248 27.5 7.5H21.25C21.25 6.50544 21.6451 5.55161 22.3483 4.84835C23.0516 4.14509 24.0054 3.75 25 3.75C25.3315 3.75 25.6495 3.6183 25.8839 3.38388C26.1183 3.14946 26.25 2.83152 26.25 2.5C26.25 2.16848 26.1183 1.85054 25.8839 1.61612C25.6495 1.3817 25.3315 1.25 25 1.25C23.3424 1.25 21.7527 1.90848 20.5806 3.08058C19.4085 4.25269 18.75 5.8424 18.75 7.5H12.5C10.1801 7.50248 7.95596 8.42515 6.31556 10.0656C4.67515 11.706 3.75248 13.9301 3.75 16.25C3.75072 16.6881 3.86658 17.1184 4.08597 17.4977C4.30535 17.8769 4.62056 18.1919 5 18.4109V20C5 25.5516 10.175 29.7063 14.3344 33.0453C16.1969 34.5422 18.75 36.5906 18.75 37.5C18.75 37.8315 18.8817 38.1495 19.1161 38.3839C19.3505 38.6183 19.6685 38.75 20 38.75C20.3315 38.75 20.6495 38.6183 20.8839 38.3839C21.1183 38.1495 21.25 37.8315 21.25 37.5C21.25 36.5906 23.8031 34.5422 25.6656 33.0453C29.825 29.7063 35 25.5516 35 20V18.4109C35.3794 18.1919 35.6946 17.8769 35.914 17.4977C36.1334 17.1184 36.2493 16.6881 36.25 16.25ZM12.5 10H27.5C29.1568 10.0025 30.7451 10.6618 31.9167 11.8333C33.0882 13.0049 33.7475 14.5932 33.75 16.25H6.25C6.25 14.5924 6.90848 13.0027 8.08058 11.8306C9.25269 10.6585 10.8424 10 12.5 10ZM24.1016 31.0938C22.4422 32.425 20.9766 33.5938 20 34.7453C19.0234 33.6016 17.5578 32.425 15.8984 31.0938C12.1562 28.0922 7.5 24.3531 7.5 20V18.75H32.5V20C32.5 24.3531 27.8438 28.0922 24.1016 31.0938Z" fill="url(#paint0_linear_3162_36294)"/>
</g>
<defs>
<linearGradient id="paint0_linear_3162_36294" x1="3.75" y1="20" x2="36.25" y2="20" gradientUnits="userSpaceOnUse">
<stop stop-color="#E93F40"/>
<stop offset="1" stop-color="#BC2727"/>
</linearGradient>
</defs>
</svg>
