<svg width="55" height="64" viewBox="0 0 55 64" fill="none" xmlns="http://www.w3.org/2000/svg">
<path id="Subtract" fill-rule="evenodd" clip-rule="evenodd" d="M28.1628 15.7171C28.3657 12.7419 29.4071 9.7023 32.6882 5.2833C32.9648 4.91073 32.6762 4.38789 32.2196 4.47026C28.5758 5.12754 26.0699 7.09009 24.7375 8.15351C24.4566 8.37769 24.0563 8.25329 23.9698 7.90446C23.6527 6.62563 23.1369 3.75178 23.8937 0.661097C23.9949 0.247827 23.6176 -0.133013 23.2311 0.0448885C19.8813 1.58679 18.7564 5.65715 18.4138 8.31014C18.3554 8.76229 17.791 8.97536 17.4519 8.6706C15.4478 6.86934 12.8224 5.17599 9.36511 4.67913C8.87899 4.60927 8.60167 5.2102 8.92814 5.57709C10.0076 6.79019 11.6899 8.93688 12.4504 11.263C12.5843 11.6727 12.1637 12.0183 11.7566 11.8768C8.91489 10.8891 6.17901 11.1663 4.56665 11.4978C4.07404 11.5991 4.06842 12.2135 4.54262 12.381C8.92342 13.9282 12.0292 15.7783 14.2563 19.0473C6.28295 23.2456 0.93335 30.994 0.93335 39.8582C0.93335 53.1914 13.0366 64 27.9667 64C42.8968 64 55 53.1914 55 39.8582C55 26.5835 43.0026 15.8113 28.1628 15.7171Z" fill="url(#paint0_linear_3165_39492)"/>
<defs>
<linearGradient id="paint0_linear_3165_39492" x1="0.93335" y1="32" x2="55" y2="32" gradientUnits="userSpaceOnUse">
<stop stop-color="#E93F40"/>
<stop offset="1" stop-color="#BC2727"/>
</linearGradient>
</defs>
</svg>
