<svg width="124" height="147" viewBox="0 0 124 147" fill="none" xmlns="http://www.w3.org/2000/svg">
<path id="Union" fill-rule="evenodd" clip-rule="evenodd" d="M62.4491 36.0467C62.9144 29.2232 65.3029 22.2519 72.828 12.1171C73.4624 11.2626 72.8006 10.0635 71.7533 10.2524C63.3964 11.7598 57.6491 16.2609 54.5933 18.6998C53.9491 19.214 53.0311 18.9287 52.8327 18.1286C52.1054 15.1957 50.9224 8.60459 52.6581 1.51621C52.8903 0.568385 52.025 -0.305062 51.1385 0.10295C43.4557 3.63925 40.8758 12.9745 40.0901 19.059C39.9562 20.096 38.6616 20.5847 37.884 19.8858C33.2877 15.7546 27.2663 11.871 19.3372 10.7314C18.2223 10.5712 17.5863 11.9494 18.3351 12.7909C20.8108 15.5731 24.669 20.4965 26.4132 25.8314C26.7204 26.771 25.7558 27.5635 24.822 27.239C18.3047 24.9738 12.03 25.6095 8.33209 26.3699C7.20233 26.6022 7.18942 28.0113 8.27699 28.3954C18.3243 31.944 25.4475 36.1871 30.5551 43.6846C12.2688 53.3133 -0.00012207 71.084 -0.00012207 91.4137C-0.00012207 121.993 27.7583 146.782 62 146.782C96.2417 146.782 124 121.993 124 91.4137C124 60.9684 96.4841 36.2624 62.4491 36.0467Z" fill="url(#paint0_linear_3165_39348)"/>
<defs>
<linearGradient id="paint0_linear_3165_39348" x1="62" y1="0" x2="62" y2="146.782" gradientUnits="userSpaceOnUse">
<stop stop-color="white"/>
<stop offset="1" stop-color="#EDEFF5"/>
</linearGradient>
</defs>
</svg>
