<svg width="72" height="72" viewBox="0 0 72 72" fill="none" xmlns="http://www.w3.org/2000/svg">
<g id="Watermelon">
<g id="Shape">
<path d="M64.8675 47.3175L66.1725 48.6224C67.7025 50.1524 67.7025 52.6275 66.195 54.18L63.09 57.285C49.7025 70.695 27.9675 70.695 14.5575 57.285C1.1475 43.8975 1.1475 22.1625 14.5575 8.75251L17.6625 5.6475C19.1925 4.1175 21.6675 4.1175 23.1975 5.6475L24.5025 6.95254L18.4275 13.0276C7.29 24.1651 7.29 42.2549 18.4275 53.3924C29.565 64.5299 47.655 64.5299 58.7925 53.3924L64.8675 47.3175Z" fill="white"/>
<path d="M62.19 44.6403L55.7551 51.0752C46.0801 60.7502 30.3751 60.7502 20.7001 51.0752C11.0251 41.4002 11.0251 25.6952 20.7001 16.0202L27.1273 9.59299L62.19 44.6403ZM31.3875 24.2099C31.3875 22.8554 30.2895 21.7573 28.935 21.7573C27.5806 21.7573 26.4825 22.8554 26.4825 24.2099C26.4825 25.5644 27.5806 26.6624 28.935 26.6624C30.2895 26.6624 31.3875 25.5644 31.3875 24.2099ZM25.9201 39.1499C27.2746 39.1499 28.3726 38.0518 28.3726 36.6974C28.3726 35.3429 27.2746 34.2449 25.9201 34.2449C24.5656 34.2449 23.4676 35.3429 23.4676 36.6974C23.4676 38.0518 24.5656 39.1499 25.9201 39.1499ZM35.1 48.3301C36.4545 48.3301 37.5525 47.2321 37.5525 45.8777C37.5525 44.5232 36.4545 43.4251 35.1 43.4251C33.7456 43.4251 32.6475 44.5232 32.6475 45.8777C32.6475 47.2321 33.7456 48.3301 35.1 48.3301ZM38.1375 35.865C39.4919 35.865 40.59 34.7671 40.59 33.4126C40.59 32.0581 39.4919 30.96 38.1375 30.96C36.783 30.96 35.685 32.0581 35.685 33.4126C35.685 34.7671 36.783 35.865 38.1375 35.865ZM50.0176 42.8623C50.0176 41.5079 48.9196 40.4099 47.5651 40.4099C46.2106 40.4099 45.1126 41.5079 45.1126 42.8623C45.1126 44.2168 46.2106 45.3149 47.5651 45.3149C48.9196 45.3149 50.0176 44.2168 50.0176 42.8623Z" fill="white"/>
</g>
<path id="Vector 94" d="M66.0001 23.5001C65.6438 20.2949 59.5 22.5002 58 28.0005C57.6337 29.344 57.1019 29.4999 59.5002 28.0006C63.4999 25.5 66.3563 26.7052 66.0001 23.5001Z" fill="white"/>
<path id="Vector 95" d="M54.1014 0.843263C58.3736 -0.44114 58.8981 8.57335 52.7114 13.4644C51.2002 14.6589 51.2901 15.4203 51.898 11.5553C52.9118 5.1093 49.8293 2.12767 54.1014 0.843263Z" fill="white"/>
</g>
</svg>
