<svg width="40" height="40" viewBox="0 0 40 40" fill="none" xmlns="http://www.w3.org/2000/svg">
<path d="M33.75 13.875V11.25C33.75 9.5924 33.0915 8.00269 31.9194 6.83058C30.7473 5.65848 29.1576 5 27.5 5H12.5C10.8424 5 9.25266 5.65848 8.08056 6.83058C6.90846 8.00269 6.24998 9.5924 6.24998 11.25V13.875C4.83712 14.1619 3.56689 14.9284 2.65451 16.0447C1.74213 17.1609 1.24371 18.5583 1.24371 20C1.24371 21.4417 1.74213 22.8391 2.65451 23.9553C3.56689 25.0716 4.83712 25.8381 6.24998 26.125V31.25C6.24998 31.913 6.51337 32.5489 6.98221 33.0178C7.45105 33.4866 8.08694 33.75 8.74998 33.75H31.25C31.913 33.75 32.5489 33.4866 33.0177 33.0178C33.4866 32.5489 33.75 31.913 33.75 31.25V26.125C35.1628 25.8381 36.4331 25.0716 37.3455 23.9553C38.2578 22.8391 38.7562 21.4417 38.7562 20C38.7562 18.5583 38.2578 17.1609 37.3455 16.0447C36.4331 14.9284 35.1628 14.1619 33.75 13.875ZM12.5 7.5H27.5C28.4945 7.5 29.4484 7.89509 30.1516 8.59835C30.8549 9.30161 31.25 10.2554 31.25 11.25V13.875C29.8392 14.1651 28.5716 14.9327 27.6608 16.0484C26.75 17.1641 26.2517 18.5597 26.25 20H13.75C13.7482 18.5597 13.2499 17.1641 12.3392 16.0484C11.4284 14.9327 10.1607 14.1651 8.74998 13.875V11.25C8.74998 10.2554 9.14507 9.30161 9.84833 8.59835C10.5516 7.89509 11.5054 7.5 12.5 7.5ZM32.5609 23.75H32.5C32.1685 23.75 31.8505 23.8817 31.6161 24.1161C31.3817 24.3505 31.25 24.6685 31.25 25V31.25H8.74998V25C8.74998 24.6685 8.61828 24.3505 8.38386 24.1161C8.14944 23.8817 7.8315 23.75 7.49998 23.75H7.43904C6.70008 23.738 5.98113 23.5079 5.37252 23.0886C4.7639 22.6693 4.29275 22.0795 4.01824 21.3933C3.74374 20.7071 3.67811 19.9551 3.82962 19.2318C3.98112 18.5084 4.34299 17.8459 4.86979 17.3276C5.39658 16.8092 6.0648 16.458 6.79051 16.3182C7.51623 16.1784 8.26708 16.2561 8.94876 16.5417C9.63044 16.8272 10.2126 17.3078 10.622 17.9231C11.0314 18.5384 11.2499 19.2609 11.25 20V26.25C11.25 26.5815 11.3817 26.8995 11.6161 27.1339C11.8505 27.3683 12.1685 27.5 12.5 27.5C12.8315 27.5 13.1494 27.3683 13.3839 27.1339C13.6183 26.8995 13.75 26.5815 13.75 26.25V22.5H26.25V26.25C26.25 26.5815 26.3817 26.8995 26.6161 27.1339C26.8505 27.3683 27.1685 27.5 27.5 27.5C27.8315 27.5 28.1494 27.3683 28.3839 27.1339C28.6183 26.8995 28.75 26.5815 28.75 26.25V20C28.7501 19.2609 28.9686 18.5384 29.378 17.9231C29.7874 17.3078 30.3695 16.8272 31.0512 16.5417C31.7329 16.2561 32.4837 16.1784 33.2094 16.3182C33.9352 16.458 34.6034 16.8092 35.1302 17.3276C35.657 17.8459 36.0188 18.5084 36.1703 19.2318C36.3218 19.9551 36.2562 20.7071 35.9817 21.3933C35.7072 22.0795 35.2361 22.6693 34.6274 23.0886C34.0188 23.5079 33.2999 23.738 32.5609 23.75Z" fill="url(#paint0_linear_3162_36363)"/>
<defs>
<linearGradient id="paint0_linear_3162_36363" x1="20" y1="5" x2="20" y2="33.75" gradientUnits="userSpaceOnUse">
<stop stop-color="#D7913B"/>
<stop offset="1" stop-color="#DF953C"/>
</linearGradient>
</defs>
</svg>
